<svg width="20" height="21" viewBox="0 0 20 21" fill="none" xmlns="http://www.w3.org/2000/svg">
<path d="M0.0287014 7.26768C0.484123 5.85851 1.23227 4.562 2.22387 3.46352C2.30583 3.37276 2.41285 3.30845 2.53136 3.27876C2.64986 3.24907 2.7745 3.25535 2.88944 3.29678L5.25346 4.14407C5.42176 4.20429 5.60111 4.22712 5.77908 4.21097C5.95706 4.19483 6.1294 4.1401 6.28417 4.05057C6.43893 3.96104 6.57242 3.83886 6.67538 3.69249C6.77834 3.54612 6.8483 3.37907 6.88043 3.20291L7.3303 0.725272C7.35209 0.604662 7.4092 0.493277 7.49437 0.405297C7.57953 0.317317 7.68889 0.256722 7.80853 0.231226C9.2529 -0.0770754 10.7459 -0.0770754 12.1902 0.231226C12.3099 0.256722 12.4192 0.317317 12.5044 0.405297C12.5896 0.493277 12.6467 0.604662 12.6685 0.725272L13.1196 3.20291C13.1517 3.37907 13.2217 3.54612 13.3246 3.69249C13.4276 3.83886 13.5611 3.96104 13.7158 4.05057C13.8706 4.1401 14.0429 4.19483 14.2209 4.21097C14.3989 4.22712 14.5782 4.20429 14.7465 4.14407L17.1118 3.29678C17.2267 3.25576 17.3511 3.24982 17.4694 3.27973C17.5877 3.30963 17.6944 3.37402 17.7761 3.46476C18.7671 4.56299 19.5149 5.85905 19.9701 7.26768C20.0076 7.38403 20.0099 7.50894 19.9765 7.62658C19.9432 7.74422 19.8757 7.84929 19.7827 7.92846L17.8661 9.55882C17.73 9.67476 17.6206 9.81899 17.5456 9.9815C17.4706 10.144 17.4317 10.3209 17.4317 10.5C17.4317 10.679 17.4706 10.8559 17.5456 11.0184C17.6206 11.181 17.73 11.3252 17.8661 11.4411L19.7827 13.0715C19.8757 13.1507 19.9432 13.2557 19.9765 13.3734C20.0099 13.491 20.0076 13.6159 19.9701 13.7323C19.515 15.1413 18.7673 16.4378 17.7761 17.5364C17.6942 17.6272 17.5871 17.6915 17.4686 17.7212C17.3501 17.7509 17.2255 17.7446 17.1106 17.7032L14.7465 16.8559C14.5782 16.7957 14.3989 16.7728 14.2209 16.789C14.0429 16.8051 13.8706 16.8598 13.7158 16.9494C13.5611 17.0389 13.4276 17.1611 13.3246 17.3075C13.2217 17.4538 13.1517 17.6209 13.1196 17.797L12.6672 20.2759C12.6453 20.3961 12.5883 20.5071 12.5034 20.5949C12.4185 20.6826 12.3095 20.7431 12.1902 20.7687C10.7459 21.0771 9.25289 21.0771 7.80853 20.7687C7.68889 20.7432 7.57953 20.6826 7.49437 20.5946C7.4092 20.5067 7.35209 20.3953 7.3303 20.2747L6.88043 17.797C6.8483 17.6209 6.77834 17.4538 6.67538 17.3075C6.57242 17.1611 6.43893 17.0389 6.28417 16.9494C6.1294 16.8598 5.95706 16.8051 5.77908 16.789C5.60111 16.7728 5.42176 16.7957 5.25346 16.8559L2.88821 17.7032C2.77331 17.7442 2.64886 17.7501 2.53059 17.7202C2.41233 17.6903 2.30558 17.6259 2.22387 17.5352C1.23283 16.437 0.485114 15.1409 0.029934 13.7323C-0.00763874 13.6159 -0.00989144 13.491 0.0234615 13.3734C0.0568145 13.2557 0.124271 13.1507 0.217281 13.0715L2.13389 11.4411C2.27004 11.3252 2.37941 11.181 2.45442 11.0184C2.52942 10.8559 2.56827 10.679 2.56827 10.5C2.56827 10.3209 2.52942 10.144 2.45442 9.9815C2.37941 9.81899 2.27004 9.67476 2.13389 9.55882L0.217281 7.92846C0.124271 7.84929 0.0568145 7.74422 0.0234615 7.62658C-0.00989144 7.50894 -0.00763874 7.38403 0.029934 7.26768H0.0287014ZM7.53491 10.5C7.53491 11.1551 7.79462 11.7834 8.25692 12.2467C8.71921 12.7099 9.34622 12.9702 10 12.9702C10.6538 12.9702 11.2808 12.7099 11.7431 12.2467C12.2054 11.7834 12.4651 11.1551 12.4651 10.5C12.4651 9.84483 12.2054 9.21651 11.7431 8.75326C11.2808 8.29 10.6538 8.02974 10 8.02974C9.34622 8.02974 8.71921 8.29 8.25692 8.75326C7.79462 9.21651 7.53491 9.84483 7.53491 10.5Z" fill="url(#paint0_linear)"/>
<defs>
<linearGradient id="paint0_linear" x1="-10.5" y1="21" x2="10" y2="21" gradientUnits="userSpaceOnUse">
<stop stop-color="#26C8EF"/>
<stop offset="0.635417" stop-color="#14B7E4"/>
<stop offset="1" stop-color="#11AADF"/>
</linearGradient>
</defs>
</svg>
