<svg width="20" height="21" viewBox="0 0 20 21" fill="none" xmlns="http://www.w3.org/2000/svg">
<path d="M11.4314 0.538026C11.0381 0.191626 10.528 0 9.99929 0C9.47054 0 8.96046 0.191626 8.56714 0.538026L0.71 7.45858C0.486604 7.6555 0.307949 7.89628 0.185632 8.16527C0.0633145 8.43426 6.87969e-05 8.72546 0 9.01997V18.8995C0 19.4566 0.225765 19.9908 0.627628 20.3848C1.02949 20.7787 1.57454 21 2.14286 21H5C5.56832 21 6.11337 20.7787 6.51523 20.3848C6.91709 19.9908 7.14286 19.4566 7.14286 18.8995V13.2981C7.14286 13.1124 7.21811 12.9343 7.35207 12.803C7.48602 12.6716 7.6677 12.5979 7.85714 12.5979H12.1429C12.3323 12.5979 12.514 12.6716 12.6479 12.803C12.7819 12.9343 12.8571 13.1124 12.8571 13.2981V18.8995C12.8571 19.4566 13.0829 19.9908 13.4848 20.3848C13.8866 20.7787 14.4317 21 15 21H17.8571C18.4255 21 18.9705 20.7787 19.3724 20.3848C19.7742 19.9908 20 19.4566 20 18.8995V9.01997C19.9999 8.72546 19.9367 8.43426 19.8144 8.16527C19.6921 7.89628 19.5134 7.6555 19.29 7.45858L11.4329 0.538026H11.4314Z" fill="url(#paint0_linear)"/>
<defs>
<linearGradient id="paint0_linear" x1="-13" y1="21" x2="10" y2="21" gradientUnits="userSpaceOnUse">
<stop stop-color="#26C8EF"/>
<stop offset="0.635417" stop-color="#14B7E4"/>
<stop offset="1" stop-color="#11AADF"/>
</linearGradient>
</defs>
</svg>
