<svg width="1366" height="768" viewBox="0 0 1366 768" fill="none" xmlns="http://www.w3.org/2000/svg">
<rect width="1366" height="768" rx="15" fill="url(#paint0_linear)"/>
<mask id="mask0" mask-type="alpha" maskUnits="userSpaceOnUse" x="0" y="0" width="1366" height="768">
<rect width="1366" height="768" rx="15" fill="url(#paint1_linear)"/>
</mask>
<g mask="url(#mask0)">
<g filter="url(#filter0_f)">
<ellipse cx="1115" cy="328" rx="408" ry="407" fill="#C0ABF2" fill-opacity="0.98"/>
</g>
<g filter="url(#filter1_f)">
<circle cx="363" cy="293" r="441" fill="#F4AADF" fill-opacity="0.98"/>
</g>
<circle cx="550.5" cy="126.5" r="52.5" fill="url(#paint2_linear)" fill-opacity="0.56"/>
<circle cx="258.5" cy="561.5" r="67.5" fill="url(#paint3_linear)" fill-opacity="0.56"/>
<circle cx="811" cy="350" r="98" fill="url(#paint4_linear)" fill-opacity="0.56"/>
<path d="M1420 533.5C1420 599.498 1366.5 653 1300.5 653C1234.5 653 1181 599.498 1181 533.5C1181 467.502 1234.5 414 1300.5 414C1366.5 414 1420 467.502 1420 533.5Z" fill="url(#paint5_linear)" fill-opacity="0.56"/>
</g>
<defs>
<filter id="filter0_f" x="507" y="-279" width="1216" height="1214" filterUnits="userSpaceOnUse" color-interpolation-filters="sRGB">
<feFlood flood-opacity="0" result="BackgroundImageFix"/>
<feBlend mode="normal" in="SourceGraphic" in2="BackgroundImageFix" result="shape"/>
<feGaussianBlur stdDeviation="100" result="effect1_foregroundBlur"/>
</filter>
<filter id="filter1_f" x="-278" y="-348" width="1282" height="1282" filterUnits="userSpaceOnUse" color-interpolation-filters="sRGB">
<feFlood flood-opacity="0" result="BackgroundImageFix"/>
<feBlend mode="normal" in="SourceGraphic" in2="BackgroundImageFix" result="shape"/>
<feGaussianBlur stdDeviation="100" result="effect1_foregroundBlur"/>
</filter>
<linearGradient id="paint0_linear" x1="683" y1="0" x2="683" y2="768" gradientUnits="userSpaceOnUse">
<stop stop-color="#DDCEFF"/>
<stop offset="1" stop-color="#F8DFF0"/>
</linearGradient>
<linearGradient id="paint1_linear" x1="683" y1="0" x2="683" y2="768" gradientUnits="userSpaceOnUse">
<stop stop-color="#DDCEFF"/>
<stop offset="1" stop-color="#F8DFF0"/>
</linearGradient>
<linearGradient id="paint2_linear" x1="577.37" y1="164.635" x2="534.585" y2="78.7539" gradientUnits="userSpaceOnUse">
<stop stop-color="#B39DE7"/>
<stop offset="1" stop-color="#FCE9FF"/>
</linearGradient>
<linearGradient id="paint3_linear" x1="293.047" y1="610.531" x2="238.037" y2="500.112" gradientUnits="userSpaceOnUse">
<stop stop-color="#B39DE7"/>
<stop offset="1" stop-color="#FCE9FF"/>
</linearGradient>
<linearGradient id="paint4_linear" x1="861.157" y1="421.185" x2="781.291" y2="260.874" gradientUnits="userSpaceOnUse">
<stop stop-color="#B39DE7"/>
<stop offset="1" stop-color="#FCE9FF"/>
</linearGradient>
<linearGradient id="paint5_linear" x1="1272.84" y1="601.131" x2="1175.45" y2="405.65" gradientUnits="userSpaceOnUse">
<stop stop-color="#B39DE7"/>
<stop offset="1" stop-color="#FCE9FF"/>
</linearGradient>
</defs>
</svg>
