<svg width="25" height="28" viewBox="0 0 25 28" fill="none" xmlns="http://www.w3.org/2000/svg">
<path d="M2.45411 14.7368L12.7741 4.41676C13.2711 3.91991 13.8611 3.52582 14.5104 3.25697C15.1596 2.98813 15.8555 2.8498 16.5583 2.8499C17.261 2.84999 17.9568 2.98849 18.6061 3.2575C19.2553 3.52651 19.8451 3.92076 20.342 4.41773C20.8388 4.91471 21.2329 5.50468 21.5018 6.15396C21.7706 6.80324 21.9089 7.49911 21.9088 8.20185C21.9087 8.90459 21.7702 9.60043 21.5012 10.2496C21.2322 10.8988 20.838 11.4887 20.341 11.9856L7.95852 24.3681C7.50208 24.8245 6.88303 25.0809 6.23754 25.0809C5.59204 25.0809 4.97299 24.8245 4.51656 24.3681C4.06013 23.9116 3.8037 23.2926 3.8037 22.6471C3.8037 22.0016 4.06013 21.3825 4.51656 20.9261L15.5234 9.91922C15.7812 9.64259 15.9215 9.27671 15.9149 8.89865C15.9082 8.5206 15.755 8.15989 15.4877 7.89253C15.2203 7.62516 14.8596 7.47201 14.4815 7.46534C14.1035 7.45867 13.7376 7.599 13.461 7.85677L2.45411 18.8636C1.45042 19.8673 0.886555 21.2286 0.886555 22.648C0.886555 24.0675 1.45042 25.4288 2.45411 26.4325C3.45779 27.4361 4.81908 28 6.23851 28C7.65794 28 9.01923 27.4361 10.0229 26.4325L22.4035 14.048C23.9244 12.4912 24.7703 10.3975 24.7576 8.22111C24.7449 6.04468 23.8747 3.961 22.3358 2.42201C20.7968 0.883019 18.7131 0.0128147 16.5367 0.0001404C14.3602 -0.0125339 12.2666 0.833344 10.7097 2.35431L0.391655 12.6724C0.133887 12.949 -0.00644296 13.3149 0.000227351 13.693C0.00689766 14.071 0.160048 14.4317 0.427413 14.6991C0.694779 14.9665 1.05548 15.1196 1.43354 15.1263C1.81159 15.1329 2.17748 14.9926 2.45411 14.7348V14.7368Z" fill="url(#paint0_linear)"/>
<defs>
<linearGradient id="paint0_linear" x1="-17.9494" y1="28" x2="12.3789" y2="28" gradientUnits="userSpaceOnUse">
<stop stop-color="#26C8EF"/>
<stop offset="0.635417" stop-color="#14B7E4"/>
<stop offset="1" stop-color="#11AADF"/>
</linearGradient>
</defs>
</svg>
