<svg width="25" height="18" viewBox="0 0 25 18" fill="none" xmlns="http://www.w3.org/2000/svg">
<path d="M23.9286 7.14286H1.07143C0.0857141 7.14286 0 7.94107 0 8.92857C0 9.91607 0.0857141 10.7143 1.07143 10.7143H23.9286C24.9143 10.7143 25 9.91607 25 8.92857C25 7.94107 24.9143 7.14286 23.9286 7.14286V7.14286ZM23.9286 14.2857H1.07143C0.0857141 14.2857 0 15.0839 0 16.0714C0 17.0589 0.0857141 17.8571 1.07143 17.8571H23.9286C24.9143 17.8571 25 17.0589 25 16.0714C25 15.0839 24.9143 14.2857 23.9286 14.2857V14.2857ZM1.07143 3.57143H23.9286C24.9143 3.57143 25 2.77321 25 1.78571C25 0.798214 24.9143 0 23.9286 0H1.07143C0.0857141 0 0 0.798214 0 1.78571C0 2.77321 0.0857141 3.57143 1.07143 3.57143Z" fill="white" fill-opacity="0.8"/>
</svg>
