<svg width="20" height="20" viewBox="0 0 20 20" fill="none" xmlns="http://www.w3.org/2000/svg">
<path fill-rule="evenodd" clip-rule="evenodd" d="M0 2C0 0.895431 0.895431 0 2 0C3.10457 0 4 0.895431 4 2C4 3.10457 3.10457 4 2 4C0.895431 4 0 3.10457 0 2ZM0 10C0 8.89543 0.895431 8 2 8C3.10457 8 4 8.89543 4 10C4 11.1046 3.10457 12 2 12C0.895431 12 0 11.1046 0 10ZM10 0C8.89543 0 8 0.895431 8 2C8 3.10457 8.89543 4 10 4C11.1046 4 12 3.10457 12 2C12 0.895431 11.1046 0 10 0ZM8 10C8 8.89543 8.89543 8 10 8C11.1046 8 12 8.89543 12 10C12 11.1046 11.1046 12 10 12C8.89543 12 8 11.1046 8 10ZM18 0C16.8954 0 16 0.895431 16 2C16 3.10457 16.8954 4 18 4C19.1046 4 20 3.10457 20 2C20 0.895431 19.1046 0 18 0ZM16 10C16 8.89543 16.8954 8 18 8C19.1046 8 20 8.89543 20 10C20 11.1046 19.1046 12 18 12C16.8954 12 16 11.1046 16 10ZM2 16C0.895431 16 0 16.8954 0 18C0 19.1046 0.895431 20 2 20C3.10457 20 4 19.1046 4 18C4 16.8954 3.10457 16 2 16ZM8 18C8 16.8954 8.89543 16 10 16C11.1046 16 12 16.8954 12 18C12 19.1046 11.1046 20 10 20C8.89543 20 8 19.1046 8 18ZM18 16C16.8954 16 16 16.8954 16 18C16 19.1046 16.8954 20 18 20C19.1046 20 20 19.1046 20 18C20 16.8954 19.1046 16 18 16Z" fill="#5B5A99"/>
</svg>
