<svg width="20" height="27" viewBox="0 0 20 27" fill="none" xmlns="http://www.w3.org/2000/svg">
<path d="M3.33333 0C2.44928 0 1.60143 0.355579 0.976311 0.988514C0.351189 1.62145 0 2.47989 0 3.375V23.625C0 24.5201 0.351189 25.3785 0.976311 26.0115C1.60143 26.6444 2.44928 27 3.33333 27H19.1667C19.3877 27 19.5996 26.9111 19.7559 26.7529C19.9122 26.5946 20 26.38 20 26.1562C20 25.9325 19.9122 25.7179 19.7559 25.5596C19.5996 25.4014 19.3877 25.3125 19.1667 25.3125H3.33333C2.89131 25.3125 2.46738 25.1347 2.15482 24.8182C1.84226 24.5018 1.66667 24.0726 1.66667 23.625H18.3333C18.7754 23.625 19.1993 23.4472 19.5118 23.1307C19.8244 22.8143 20 22.3851 20 21.9375V3.375C20 2.47989 19.6488 1.62145 19.0237 0.988514C18.3986 0.355579 17.5507 0 16.6667 0H3.33333ZM4.58333 4.21875H15.4167C15.7482 4.21875 16.0661 4.35209 16.3005 4.58944C16.535 4.82679 16.6667 5.14871 16.6667 5.48438C16.6667 5.82004 16.535 6.14196 16.3005 6.37931C16.0661 6.61666 15.7482 6.75 15.4167 6.75H4.58333C4.25181 6.75 3.93387 6.61666 3.69945 6.37931C3.46503 6.14196 3.33333 5.82004 3.33333 5.48438C3.33333 5.14871 3.46503 4.82679 3.69945 4.58944C3.93387 4.35209 4.25181 4.21875 4.58333 4.21875Z" fill="url(#paint0_linear)"/>
<defs>
<linearGradient id="paint0_linear" x1="-14.5" y1="27" x2="10" y2="27" gradientUnits="userSpaceOnUse">
<stop stop-color="#26C8EF"/>
<stop offset="0.635417" stop-color="#14B7E4"/>
<stop offset="1" stop-color="#11AADF"/>
</linearGradient>
</defs>
</svg>
