<svg width="20" height="20" viewBox="0 0 20 20" fill="none" xmlns="http://www.w3.org/2000/svg">
<path d="M7.72021 1.5133e-08C9.15753 -8.99564e-05 10.5664 0.401008 11.7881 1.15814C13.0098 1.91527 13.9959 2.99838 14.6353 4.28552C15.2748 5.57267 15.5422 7.01275 15.4076 8.44364C15.2729 9.87454 14.7414 11.2394 13.873 12.3847L19.6945 18.2057C19.8812 18.3938 19.99 18.6454 19.9993 18.9102C20.0087 19.175 19.9178 19.4336 19.7448 19.6343C19.5719 19.8351 19.3296 19.9632 19.0663 19.9932C18.803 20.0232 18.5381 19.9528 18.3244 19.7961L18.2065 19.6936L12.385 13.8726C11.4088 14.6126 10.2704 15.1096 9.06409 15.3227C7.85774 15.5359 6.618 15.4589 5.44728 15.0982C4.27657 14.7375 3.2085 14.1034 2.33132 13.2483C1.45413 12.3933 0.793021 11.3418 0.402602 10.1807C0.012184 9.01963 -0.0963331 7.78234 0.0860176 6.57105C0.268368 5.35976 0.736352 4.20925 1.4513 3.21457C2.16625 2.21989 3.10764 1.40959 4.1977 0.850634C5.28775 0.291676 6.49518 0.000101164 7.72021 1.5133e-08ZM7.72021 2.10552C6.23097 2.10552 4.80274 2.69707 3.74969 3.75003C2.69664 4.803 2.10505 6.23113 2.10505 7.72024C2.10505 9.20936 2.69664 10.6375 3.74969 11.6905C4.80274 12.7434 6.23097 13.335 7.72021 13.335C9.20944 13.335 10.6377 12.7434 11.6907 11.6905C12.7438 10.6375 13.3354 9.20936 13.3354 7.72024C13.3354 6.23113 12.7438 4.803 11.6907 3.75003C10.6377 2.69707 9.20944 2.10552 7.72021 2.10552Z" fill="url(#paint0_linear)"/>
<defs>
<linearGradient id="paint0_linear" x1="-14.5" y1="20" x2="10" y2="20" gradientUnits="userSpaceOnUse">
<stop stop-color="#26C8EF"/>
<stop offset="0.635417" stop-color="#14B7E4"/>
<stop offset="1" stop-color="#11AADF"/>
</linearGradient>
</defs>
</svg>
