<svg width="20" height="19" viewBox="0 0 20 19" fill="none" xmlns="http://www.w3.org/2000/svg">
<path d="M13.0938 6.86773C13.4006 6.86781 13.6968 6.9909 13.926 7.21363C14.1552 7.43635 14.3015 7.7432 14.337 8.0759L14.3458 8.23444V14.2042C14.354 15.4505 13.9142 16.6506 13.121 17.5469C12.3277 18.4432 11.2441 18.9642 10.1028 18.9982C8.96152 19.0322 7.85352 18.5764 7.01664 17.7287C6.17976 16.8809 5.68072 15.7088 5.62664 14.4639L5.62038 14.2042V8.23444C5.62046 7.89948 5.73322 7.57621 5.93726 7.32602C6.1413 7.07583 6.4224 6.91615 6.72718 6.87729L6.87242 6.86773H13.0938ZM4.70515 6.86773C4.52297 7.21087 4.41186 7.5934 4.37962 7.98843L4.36835 8.23444V14.2042L4.37461 14.4912C4.41217 15.37 4.61876 16.1996 4.96056 16.9445C4.43335 17.1862 3.86073 17.2864 3.29073 17.2366C2.72073 17.1868 2.16999 16.9885 1.68469 16.6584C1.1994 16.3282 0.793713 15.8759 0.501668 15.3392C0.209622 14.8026 0.0397359 14.1973 0.00626032 13.5742L0 13.3446V8.23444C4.04539e-05 7.89969 0.112628 7.57659 0.316408 7.32643C0.520188 7.07628 0.800988 6.91646 1.10555 6.87729L1.25203 6.86773H4.70389H4.70515ZM15.2623 6.86773H18.748C19.0548 6.86781 19.351 6.9909 19.5802 7.21363C19.8094 7.43635 19.9556 7.7432 19.9912 8.0759L20 8.23444V13.3459C20 13.9923 19.8531 14.6285 19.5722 15.1975C19.2914 15.7665 18.8855 16.2505 18.3911 16.606C17.8966 16.9615 17.329 17.1774 16.7392 17.2344C16.1494 17.2913 15.5559 17.1875 15.0119 16.9322C15.3484 16.1947 15.5443 15.3903 15.5878 14.5678L15.5978 14.2042V8.23444L15.5903 8.0308C15.563 7.62101 15.4508 7.22334 15.2623 6.86773ZM9.98122 0C10.7209 0 11.4303 0.320743 11.9533 0.89167C12.4763 1.4626 12.7701 2.23694 12.7701 3.04435C12.7701 3.85176 12.4763 4.62611 11.9533 5.19703C11.4303 5.76796 10.7209 6.0887 9.98122 6.0887C9.24156 6.0887 8.53219 5.76796 8.00916 5.19703C7.48614 4.62611 7.19231 3.85176 7.19231 3.04435C7.19231 2.23694 7.48614 1.4626 8.00916 0.89167C8.53219 0.320743 9.24156 0 9.98122 0ZM16.2251 0.858295C16.8605 0.858295 17.4699 1.13382 17.9192 1.62427C18.3685 2.11472 18.6209 2.7799 18.6209 3.4735C18.6209 4.16709 18.3685 4.83228 17.9192 5.32273C17.4699 5.81317 16.8605 6.0887 16.2251 6.0887C15.5897 6.0887 14.9803 5.81317 14.5311 5.32273C14.0818 4.83228 13.8293 4.16709 13.8293 3.4735C13.8293 2.7799 14.0818 2.11472 14.5311 1.62427C14.9803 1.13382 15.5897 0.858295 16.2251 0.858295ZM3.7561 0.858295C4.3915 0.858295 5.00087 1.13382 5.45017 1.62427C5.89946 2.11472 6.15187 2.7799 6.15187 3.4735C6.15187 4.16709 5.89946 4.83228 5.45017 5.32273C5.00087 5.81317 4.3915 6.0887 3.7561 6.0887C3.12071 6.0887 2.51133 5.81317 2.06204 5.32273C1.61275 4.83228 1.36034 4.16709 1.36034 3.4735C1.36034 2.7799 1.61275 2.11472 2.06204 1.62427C2.51133 1.13382 3.12071 0.858295 3.7561 0.858295Z" fill="url(#paint0_linear)"/>
<defs>
<linearGradient id="paint0_linear" x1="-10.5" y1="19" x2="10" y2="19" gradientUnits="userSpaceOnUse">
<stop stop-color="#26C8EF"/>
<stop offset="0.635417" stop-color="#14B7E4"/>
<stop offset="1" stop-color="#11AADF"/>
</linearGradient>
</defs>
</svg>
